<svg id="visual" viewBox="0 0 450 900" width="450" height="900" xmlns="http://www.w3.org/2000/svg" xmlns:xlink="http://www.w3.org/1999/xlink" version="1.1"><g><g transform="translate(200 288)"><path d="M0 -84.4L73.1 -42.2L73.1 42.2L0 84.4L-73.1 42.2L-73.1 -42.2Z" fill="none" stroke="#68ff7e" stroke-width="5"></path></g><g transform="translate(238 632)"><path d="M0 -76L65.8 -38L65.8 38L0 76L-65.8 38L-65.8 -38Z" stroke="#68ff7e" fill="none" stroke-width="5"></path></g><g transform="translate(234 99)"><path d="M0 -79L68.4 -39.5L68.4 39.5L0 79L-68.4 39.5L-68.4 -39.5Z" stroke="#68ff7e" fill="none" stroke-width="5"></path></g><g transform="translate(122 470)"><path d="M0 -71L61.5 -35.5L61.5 35.5L0 71L-61.5 35.5L-61.5 -35.5Z" stroke="#68ff7e" fill="none" stroke-width="5"></path></g><g transform="translate(359 369)"><path d="M0 -73L63.2 -36.5L63.2 36.5L0 73L-63.2 36.5L-63.2 -36.5Z" stroke="#68ff7e" fill="none" stroke-width="5"></path></g><g transform="translate(112 793)"><path d="M0 -79L68.4 -39.5L68.4 39.5L0 79L-68.4 39.5L-68.4 -39.5Z" stroke="#68ff7e" fill="none" stroke-width="5"></path></g><g transform="translate(353 762)"><path d="M0 -65L56.3 -32.5L56.3 32.5L0 65L-56.3 32.5L-56.3 -32.5Z" stroke="#68ff7e" fill="none" stroke-width="5"></path></g></g></svg>