<svg width="100%" height="100%" id="svg" viewBox="0 0 1440 390" xmlns="http://www.w3.org/2000/svg" class="transition duration-300 ease-in-out delay-150">
    <style>
        @import url('../css/wave.css');
    </style>
            <defs><linearGradient id="gradient" x1="0%" y1="50%" x2="100%" y2="50%"><stop offset="5%" stop-color="#00d084"></stop><stop offset="95%" stop-color="#7bdcb5"></stop></linearGradient></defs><path d="M 0,400 L 0,60 C 18.574069378198864,67.8614463629232 37.14813875639773,75.7228927258464 62,68 C 86.85186124360227,60.27710727415359 117.98151435260795,36.969875459537576 146,33 C 174.01848564739205,29.03012454046242 198.92580383317045,44.39760543600326 222,50 C 245.07419616682955,55.60239456399674 266.3152703147103,51.439702796449374 290,50 C 313.6847296852897,48.560297203550626 339.8131149079884,49.84358337819924 368,49 C 396.1868850920116,48.15641662180076 426.4322700533361,45.18596369075365 444,55 C 461.5677299466639,64.81403630924635 466.45780487866705,87.41256185878616 491,79 C 515.542195121333,70.58743814121384 559.736510431996,31.163788874101726 588,30 C 616.263489568004,28.836211125898274 628.5961533933491,65.93228264480693 648,82 C 667.4038466066509,98.06771735519307 693.8788759946073,93.10708054667056 716,83 C 738.1211240053927,72.89291945332944 755.8883426282216,57.63939516851089 784,56 C 812.1116573717784,54.36060483148911 850.5677534925063,66.33533877928589 875,74 C 899.4322465074937,81.66466122071411 909.840643401753,85.01924971434558 933,75 C 956.159356598247,64.98075028565442 992.0696729004824,41.58766236333183 1014,40 C 1035.9303270995176,38.41233763666817 1043.8806649963176,58.630100832327074 1069,57 C 1094.1193350036824,55.369899167672926 1136.4076671142464,31.891934307359872 1164,30 C 1191.5923328857536,28.108065692640128 1204.4886665466968,47.80216193823344 1222,58 C 1239.5113334533032,68.19783806176656 1261.637666698966,68.89941793970638 1289,65 C 1316.362333301034,61.10058206029361 1348.9606666574382,52.60016630294103 1375,51 C 1401.0393333425618,49.39983369705897 1420.519666671281,54.69991684852948 1440,60 L 1440,400 L 0,400 Z" stroke="none" stroke-width="0" fill="url(#gradient)" fill-opacity="0.265" class="transition-all duration-300 ease-in-out delay-150 path-0" transform="rotate(-180 720 200)"></path>
            <defs><linearGradient id="gradient" x1="0%" y1="50%" x2="100%" y2="50%"><stop offset="5%" stop-color="#00d084"></stop><stop offset="95%" stop-color="#7bdcb5"></stop></linearGradient></defs><path d="M 0,400 L 0,140 C 23.725838196625354,149.25379455930943 47.45167639325071,158.50758911861888 70,154 C 92.54832360674929,149.49241088138112 113.91913262362252,131.2234380848339 137,121 C 160.08086737637748,110.77656191516608 184.87179311225918,108.5986585420454 211,118 C 237.12820688774082,127.4013414579546 264.5936949273407,148.38192774698453 291,152 C 317.4063050726593,155.61807225301547 342.75342717837793,141.8736304700165 363,142 C 383.24657282162207,142.1263695299835 398.39259635914766,156.12355037294944 421,151 C 443.60740364085234,145.87644962705056 473.6761873850312,121.63216803818565 498,128 C 522.3238126149688,134.36783196181435 540.902654100728,171.3477774743079 566,168 C 591.097345899272,164.6522225256921 622.7131962120567,120.97672206458277 646,112 C 669.2868037879433,103.02327793541723 684.2445610510455,128.74533426736102 709,147 C 733.7554389489545,165.25466573263898 768.3085595837614,176.04194086597315 799,162 C 829.6914404162386,147.95805913402685 856.521200613909,109.0869022687464 875,113 C 893.478799386091,116.9130977312536 903.6066379606033,163.61045005904134 925,167 C 946.3933620393967,170.38954994095866 979.052247543678,130.4712974950883 1007,121 C 1034.947752456322,111.5287025049117 1058.1843718646844,132.50435996060548 1084,133 C 1109.8156281353156,133.49564003939452 1138.2102649975845,113.51126266248966 1164,122 C 1189.7897350024155,130.48873733751034 1212.9745681449772,167.45058938943575 1236,169 C 1259.0254318550228,170.54941061056425 1281.891462422506,136.68637977976726 1303,130 C 1324.108537577494,123.31362022023272 1343.4595821649982,143.80389149149505 1366,150 C 1388.5404178350018,156.19610850850495 1414.270208917501,148.09805425425247 1440,140 L 1440,400 L 0,400 Z" stroke="none" stroke-width="0" fill="url(#gradient)" fill-opacity="0.4" class="transition-all duration-300 ease-in-out delay-150 path-1" transform="rotate(-180 720 200)"></path>
            <defs><linearGradient id="gradient" x1="0%" y1="50%" x2="100%" y2="50%"><stop offset="5%" stop-color="#00d084"></stop><stop offset="95%" stop-color="#7bdcb5"></stop></linearGradient></defs><path d="M 0,400 L 0,220 C 22.595467956216147,205.69117624778596 45.190935912432295,191.38235249557195 69,191 C 92.8090640875677,190.61764750442805 117.83172430648699,204.16176626549813 143,210 C 168.168275693513,215.83823373450187 193.48216686161976,213.9705824424354 218,210 C 242.51783313838024,206.0294175575646 266.239608247034,199.95590396476047 292,200 C 317.760391752966,200.04409603523953 345.55940015024413,206.20580169852286 371,205 C 396.44059984975587,203.79419830147714 419.52279115198934,195.22088924114803 440,198 C 460.47720884801066,200.77911075885197 478.34943524179823,214.91064133688496 504,224 C 529.6505647582018,233.08935866311504 563.0794678808181,237.13654541131214 587,227 C 610.9205321191819,216.86345458868786 625.332693234929,192.5431770178664 648,197 C 670.667306765071,201.4568229821336 701.5897591794654,234.6907465172222 728,234 C 754.4102408205346,233.3092534827778 776.3082700472091,198.69383691324467 794,195 C 811.6917299527909,191.30616308675533 825.1771606316986,218.53390582979915 851,231 C 876.8228393683014,243.46609417020085 914.9830874259966,241.17053976755875 943,240 C 971.0169125740034,238.82946023244125 988.8904896643155,238.78393509996587 1013,230 C 1037.1095103356845,221.21606490003413 1067.4549539167415,203.6937198325776 1091,203 C 1114.5450460832585,202.3062801674224 1131.2896946687185,218.44118556972361 1154,230 C 1176.7103053312815,241.55881443027639 1205.3862674083846,248.54153788852767 1233,241 C 1260.6137325916154,233.45846211147233 1287.1652356977427,211.39266287616562 1307,214 C 1326.8347643022573,216.60733712383438 1339.9527898006447,243.8878106068098 1361,249 C 1382.0472101993553,254.1121893931902 1411.0236050996778,237.0560946965951 1440,220 L 1440,400 L 0,400 Z" stroke="none" stroke-width="0" fill="url(#gradient)" fill-opacity="0.53" class="transition-all duration-300 ease-in-out delay-150 path-2" transform="rotate(-180 720 200)"></path>
            <defs><linearGradient id="gradient" x1="0%" y1="50%" x2="100%" y2="50%"><stop offset="5%" stop-color="#00d084"></stop><stop offset="95%" stop-color="#7bdcb5"></stop></linearGradient></defs><path d="M 0,400 L 0,300 C 16.691274720711597,307.57712649981386 33.382549441423194,315.1542529996278 61,318 C 88.6174505585768,320.8457470003722 127.16107695501881,318.9601145013027 156,314 C 184.8389230449812,309.0398854986973 203.97314273850156,301.00528899516144 223,295 C 242.02685726149844,288.99471100483856 260.946352090975,285.01872951805143 286,281 C 311.053647909025,276.98127048194857 342.24144889759845,272.9197929326328 370,282 C 397.75855110240155,291.0802070673672 422.0878523186312,313.3020987514175 443,309 C 463.9121476813688,304.6979012485825 481.40714182787656,273.8718120616975 500,270 C 518.5928581721234,266.1281879383025 538.2835803698628,289.2106530017926 562,300 C 585.7164196301372,310.7893469982074 613.4585366926727,309.2855759311321 638,311 C 662.5414633073273,312.7144240688679 683.8822728594465,317.6470432736789 707,318 C 730.1177271405535,318.3529567263211 755.0123718695413,314.1262509741522 782,307 C 808.9876281304587,299.8737490258478 838.0682396623877,289.84795282971237 863,288 C 887.9317603376123,286.15204717028763 908.7146694809078,292.4819377069985 934,290 C 959.2853305190922,287.5180622930015 989.0730824139812,276.22429634229377 1013,286 C 1036.9269175860188,295.77570365770623 1054.993000863167,326.62087692382653 1074,326 C 1093.006999136833,325.37912307617347 1112.95491413335,293.2921959624001 1141,283 C 1169.04508586665,272.7078040375999 1205.1873426034317,284.2103392265731 1231,294 C 1256.8126573965683,303.7896607734269 1272.295715452922,311.8664471313072 1295,317 C 1317.704284547078,322.1335528686928 1347.6297955848793,324.323872248198 1373,321 C 1398.3702044151207,317.676127751802 1419.1851022075602,308.838063875901 1440,300 L 1440,400 L 0,400 Z" stroke="none" stroke-width="0" fill="url(#gradient)" fill-opacity="1" class="transition-all duration-300 ease-in-out delay-150 path-3" transform="rotate(-180 720 200)"></path>
</svg>